<?xml version="1.0" standalone="no"?>
<!DOCTYPE svg PUBLIC "-//W3C//DTD SVG 20010904//EN"
 "http://www.w3.org/TR/2001/REC-SVG-20010904/DTD/svg10.dtd">
<svg version="1.0" xmlns="http://www.w3.org/2000/svg"
 width="515.000000pt" height="500.000000pt" viewBox="0 0 515.000000 500.000000"
 preserveAspectRatio="xMidYMid meet">

<g transform="translate(0.000000,500.000000) scale(0.100000,-0.100000)"
fill="#000000" stroke="none">
<path d="M1972 4981 c-66 -23 -98 -52 -128 -116 l-24 -50 0 -571 c0 -401 3
-581 11 -605 18 -52 55 -96 107 -126 47 -28 47 -28 270 -31 l222 -4 0 -374 -1
-373 -827 -3 c-910 -3 -844 1 -921 -64 -68 -57 -65 -34 -71 -619 l-5 -530
-225 -5 c-247 -5 -255 -7 -317 -72 -65 -67 -63 -49 -63 -674 0 -417 3 -578 12
-608 16 -54 90 -128 144 -144 62 -18 1154 -16 1207 2 57 21 103 61 128 113
l24 48 -1 585 c0 574 -1 586 -21 625 -24 46 -64 86 -110 109 -27 13 -69 16
-253 16 l-220 0 0 455 0 455 760 0 760 0 -2 -453 -3 -452 -225 -5 c-206 -5
-228 -7 -266 -27 -44 -24 -89 -81 -104 -134 -15 -51 -13 -1141 2 -1190 16 -56
69 -113 128 -138 50 -21 54 -22 633 -19 532 3 585 5 614 20 47 26 77 57 104
108 l24 45 0 575 c0 628 1 620 -58 687 -59 67 -85 73 -329 73 l-218 0 0 455 0
455 758 -2 757 -3 0 -450 0 -450 -230 -5 -230 -5 -47 -32 c-31 -22 -54 -50
-72 -85 l-26 -52 0 -580 c0 -567 0 -581 21 -623 26 -54 88 -107 142 -122 30
-9 203 -11 618 -9 l576 3 49 30 c34 21 58 46 76 80 l28 50 0 590 c0 659 2 638
-71 699 -62 53 -81 56 -314 56 l-215 0 0 513 c-1 390 -4 521 -14 548 -20 56
-61 103 -113 130 l-48 24 -822 3 -823 3 0 373 0 374 218 4 c127 3 228 9 243
16 41 17 98 71 122 116 22 41 22 43 22 621 0 440 -3 589 -13 615 -15 44 -70
102 -120 126 -35 18 -74 19 -607 21 -531 3 -574 1 -623 -16z m1058 -735 l0
-455 -27 -3 c-16 -2 -220 -2 -455 0 l-428 2 0 449 c0 420 1 450 18 454 9 3
214 5 455 6 l437 1 0 -454z m-1820 -3491 l0 -455 -452 2 -453 3 -3 453 -2 452
455 0 455 0 0 -455z m1820 0 l0 -455 -455 0 -455 0 0 455 0 455 455 0 455 0 0
-455z m1820 0 l0 -455 -452 2 -453 3 -3 453 -2 452 455 0 455 0 0 -455z"/>
</g>
</svg>
