<?xml version="1.0" standalone="no"?>
<!DOCTYPE svg PUBLIC "-//W3C//DTD SVG 20010904//EN"
 "http://www.w3.org/TR/2001/REC-SVG-20010904/DTD/svg10.dtd">
<svg version="1.0" xmlns="http://www.w3.org/2000/svg"
 width="250.000000pt" height="250.000000pt" viewBox="0 0 250.000000 250.000000"
 preserveAspectRatio="xMidYMid meet">

<g transform="translate(0.000000,250.000000) scale(0.100000,-0.100000)"
fill="#000000" stroke="none">
<path d="M1126 2485 c-38 -8 -108 -32 -155 -54 -47 -22 -105 -42 -128 -44 -89
-10 -181 -109 -221 -237 -16 -53 -17 -77 -15 -325 1 -38 1 -95 1 -126 0 -38 8
-75 25 -115 14 -33 29 -81 32 -109 9 -65 23 -90 113 -210 131 -174 158 -202
225 -235 128 -63 371 -62 497 2 58 30 76 47 173 168 116 144 153 207 163 280
3 25 16 65 27 90 18 36 22 62 21 130 -1 47 -1 101 -1 120 4 209 1 256 -21 315
-62 163 -207 287 -398 340 -83 23 -253 28 -338 10z m234 -136 c196 -31 329
-133 374 -288 9 -30 16 -68 16 -84 0 -24 -3 -28 -17 -21 -10 4 -85 9 -168 9
-168 2 -221 10 -448 66 -87 21 -162 39 -167 39 -5 0 -15 -18 -21 -40 -7 -22
-16 -40 -21 -40 -5 0 -30 14 -55 32 -25 17 -59 31 -75 32 -28 1 -29 3 -23 35
11 57 53 129 85 146 16 8 47 15 68 15 28 0 58 11 98 35 104 63 225 85 354 64z
m33 -520 c54 -6 139 -9 188 -7 81 5 89 4 94 -14 4 -10 23 -34 42 -53 32 -31
35 -38 30 -76 -3 -22 -13 -49 -22 -59 -9 -10 -20 -48 -26 -85 -11 -78 -17 -91
-78 -169 -166 -213 -190 -229 -347 -234 -121 -5 -190 12 -247 59 -21 17 -78
85 -127 150 -81 109 -89 124 -95 177 -4 31 -18 79 -32 106 -31 62 -32 102 -1
148 14 20 30 49 37 66 l13 30 61 -26 c46 -19 86 -26 155 -30 l92 -4 0 35 0 35
83 -18 c45 -10 126 -24 180 -31z"/>
<path d="M1028 1698 c-2 -17 -11 -24 -33 -28 -66 -11 -26 -110 45 -110 44 0
66 14 79 50 12 37 1 72 -31 94 -32 23 -56 20 -60 -6z"/>
<path d="M1458 1698 c-2 -18 -11 -24 -35 -26 -29 -3 -33 -7 -33 -33 0 -41 39
-79 82 -79 82 1 113 97 46 144 -32 23 -56 20 -60 -6z"/>
<path d="M1092 1337 c-29 -29 -52 -55 -52 -58 0 -4 35 -7 78 -8 66 -1 82 2
102 19 28 24 26 24 57 0 21 -16 41 -20 104 -20 44 0 79 4 79 8 0 4 -24 31 -53
60 l-53 52 -105 0 -105 0 -52 -53z"/>
<path d="M713 1005 c-339 -63 -507 -194 -579 -450 -13 -46 -18 -118 -21 -307
l-5 -248 1142 0 1142 0 -5 248 c-3 185 -9 262 -21 307 -59 216 -215 361 -456
423 -109 29 -230 47 -239 36 -5 -5 -98 -182 -206 -394 -109 -212 -201 -389
-205 -393 -4 -4 -102 171 -218 390 -236 447 -205 411 -329 388z m223 -492
c104 -197 191 -361 192 -365 2 -4 -193 -8 -433 -8 l-437 0 4 183 c5 205 14
246 77 337 42 61 120 120 201 151 44 17 173 54 201 58 3 1 91 -160 195 -356z
m987 311 c133 -44 211 -107 266 -214 41 -79 51 -141 51 -315 l0 -155 -425 0
c-314 0 -425 3 -425 12 0 6 47 101 104 212 57 111 138 269 181 352 l77 151 47
-9 c25 -4 81 -20 124 -34z"/>
<path d="M1050 830 c0 -66 2 -120 5 -120 3 0 48 20 101 45 l95 45 94 -45 c52
-25 97 -45 100 -45 3 0 5 54 5 120 0 75 -4 120 -10 120 -6 0 -49 -18 -96 -40
-47 -22 -89 -40 -94 -40 -4 0 -46 18 -94 40 -47 22 -91 40 -96 40 -6 0 -10
-48 -10 -120z"/>
<path d="M1212 694 c-18 -12 -22 -24 -20 -52 6 -78 110 -78 116 0 2 28 -2 40
-20 52 -28 20 -48 20 -76 0z"/>
<path d="M1218 514 c-54 -29 -30 -114 32 -114 63 0 86 86 30 115 -34 18 -28
18 -62 -1z"/>
</g>
</svg>
