<?xml version="1.0" standalone="no"?>
<!DOCTYPE svg PUBLIC "-//W3C//DTD SVG 20010904//EN"
 "http://www.w3.org/TR/2001/REC-SVG-20010904/DTD/svg10.dtd">
<svg version="1.0" xmlns="http://www.w3.org/2000/svg"
 width="437.000000pt" height="647.000000pt" viewBox="0 0 437.000000 647.000000"
 preserveAspectRatio="xMidYMid meet">

<g transform="translate(0.000000,647.000000) scale(0.100000,-0.100000)"
fill="#000000" stroke="none">
<path d="M1953 6455 c-28 -8 -73 -24 -100 -37 -65 -30 -172 -139 -206 -210
-53 -111 -57 -144 -57 -504 0 -182 4 -356 10 -385 12 -64 67 -179 110 -232 38
-45 134 -112 193 -134 26 -10 93 -18 180 -22 l138 -6 -57 -70 c-32 -38 -60
-72 -64 -75 -6 -5 -119 -139 -370 -439 -58 -69 -132 -158 -165 -197 -51 -60
-775 -918 -826 -978 -9 -12 -84 -100 -166 -196 -82 -96 -193 -229 -248 -295
-55 -66 -105 -125 -111 -132 -6 -7 -15 -34 -19 -60 -3 -26 -27 -156 -51 -288
-24 -132 -51 -276 -59 -320 -8 -44 -30 -165 -50 -269 -19 -105 -33 -191 -32
-192 2 -3 277 55 822 172 193 41 362 77 376 80 18 3 64 50 150 151 534 630
499 590 499 569 0 -9 -13 -103 -29 -209 -42 -273 -44 -311 -31 -422 23 -194
72 -314 215 -535 37 -58 84 -130 103 -160 46 -72 102 -158 194 -300 41 -63
134 -209 208 -325 199 -313 232 -353 323 -394 114 -52 215 -52 328 0 104 48
121 69 365 453 38 61 71 115 74 120 3 6 21 36 42 66 85 128 432 686 453 728
53 106 86 237 100 392 7 84 16 18 -265 1950 -33 228 -83 570 -110 760 -27 190
-53 362 -56 383 l-7 37 115 0 c166 0 252 33 354 137 64 65 105 137 129 231 21
79 21 722 1 799 -44 163 -154 289 -304 346 l-57 22 -995 2 c-830 2 -1004 0
-1047 -12z m1927 -755 l0 -280 -113 0 c-126 0 -203 -16 -280 -58 -113 -61
-197 -189 -217 -332 -10 -70 -7 -103 50 -495 33 -231 94 -652 135 -935 41
-283 111 -765 155 -1070 44 -305 85 -583 90 -617 8 -59 2 -136 -15 -208 -13
-51 -50 -117 -196 -347 -78 -123 -180 -284 -227 -358 -141 -224 -147 -232
-203 -322 -30 -48 -56 -88 -59 -88 -3 0 -61 88 -130 195 -69 107 -170 264
-225 349 -55 86 -122 190 -150 233 -27 43 -78 122 -112 176 -80 124 -105 197
-105 302 0 46 24 238 57 450 31 204 63 415 71 470 18 121 213 1422 254 1695
70 461 75 507 62 584 -32 188 -161 326 -340 365 -29 6 -109 11 -177 11 l-125
0 0 279 0 280 900 1 900 0 0 -280z m-1838 -2051 l-48 -316 -110 -129 c-60 -70
-164 -193 -232 -273 -123 -146 -244 -288 -422 -497 -52 -61 -126 -148 -165
-194 -38 -45 -78 -91 -87 -102 -17 -19 -56 -30 -296 -80 -29 -6 -55 -9 -58 -6
-2 3 5 64 17 136 20 114 26 134 53 165 17 19 74 85 126 147 143 170 328 389
375 445 129 152 513 607 549 649 22 27 82 97 131 156 50 58 117 139 150 179
43 52 61 67 62 54 2 -10 -19 -160 -45 -334z"/>
</g>
</svg>
