<?xml version="1.0" standalone="no"?>
<!DOCTYPE svg PUBLIC "-//W3C//DTD SVG 20010904//EN"
 "http://www.w3.org/TR/2001/REC-SVG-20010904/DTD/svg10.dtd">
<svg version="1.0" xmlns="http://www.w3.org/2000/svg"
 width="260.000000pt" height="280.000000pt" viewBox="0 0 260.000000 280.000000"
 preserveAspectRatio="xMidYMid meet">

<g transform="translate(0.000000,280.000000) scale(0.100000,-0.100000)"
fill="#000000" stroke="none">
<path d="M1185 2694 c-90 -10 -212 -37 -298 -66 -742 -248 -1099 -1103 -752
-1800 68 -137 131 -225 245 -339 315 -319 749 -450 1189 -359 258 53 479 177
671 376 246 256 371 585 357 938 -14 346 -135 624 -377 867 -194 194 -416 313
-682 364 -84 16 -282 26 -353 19z m315 -446 c0 -11 -74 -327 -86 -370 -5 -16
-20 -18 -135 -18 -71 0 -129 2 -129 5 0 3 -18 86 -40 185 -22 99 -40 187 -40
195 0 13 30 15 215 15 160 0 215 -3 215 -12z m57 -913 c112 -353 140 -452 130
-461 -6 -7 -99 -85 -206 -173 -193 -161 -193 -161 -216 -144 -103 77 -394 331
-394 344 -1 13 106 352 265 842 l16 48 131 -3 131 -3 143 -450z m158 95 l145
-193 0 -59 0 -59 -62 3 -63 3 -82 235 c-100 284 -97 276 -89 269 3 -3 71 -93
151 -199z"/>
</g>
</svg>
